<?xml version="1.0" encoding="UTF-8" standalone="no"?>
<svg
   xmlns:dc="http://purl.org/dc/elements/1.1/"
   xmlns:cc="http://creativecommons.org/ns#"
   xmlns:rdf="http://www.w3.org/1999/02/22-rdf-syntax-ns#"
   xmlns:svg="http://www.w3.org/2000/svg"
   xmlns="http://www.w3.org/2000/svg"
   xmlns:sodipodi="http://sodipodi.sourceforge.net/DTD/sodipodi-0.dtd"
   xmlns:inkscape="http://www.inkscape.org/namespaces/inkscape"
   height="24"
   viewBox="0 0 24 24"
   width="24"
   id="svg2"
   version="1.1"
   inkscape:version="0.91 r13725"
   sodipodi:docname="mActionAddPolygon.svg">
  <metadata
     id="metadata26">
    <rdf:RDF>
      <cc:Work
         rdf:about="">
        <dc:format>image/svg+xml</dc:format>
        <dc:type
           rdf:resource="http://purl.org/dc/dcmitype/StillImage" />
      </cc:Work>
    </rdf:RDF>
  </metadata>
  <defs
     id="defs24" />
  <sodipodi:namedview
     pagecolor="#ffffff"
     bordercolor="#666666"
     borderopacity="1"
     objecttolerance="10"
     gridtolerance="10"
     guidetolerance="10"
     inkscape:pageopacity="0"
     inkscape:pageshadow="2"
     inkscape:window-width="640"
     inkscape:window-height="480"
     id="namedview22"
     showgrid="false"
     inkscape:zoom="9.8333333"
     inkscape:cx="12"
     inkscape:cy="12"
     inkscape:window-x="691"
     inkscape:window-y="238"
     inkscape:window-maximized="0"
     inkscape:current-layer="svg2" />
  <linearGradient
     gradientUnits="userSpaceOnUse"
     x1="-10"
     x2="-10"
     y1="15"
     y2="21"
     id="linearGradient4">
    <stop
       offset="0"
       stop-color="#555753"
       id="stop6" />
    <stop
       offset="1"
       stop-color="#555753"
       stop-opacity="0"
       id="stop8" />
  </linearGradient>
  <g
     id="g3359">
    <g
       transform="translate(33,0)"
       id="g12">
      <rect
         height="11"
         rx="2.0114901"
         width="11"
         x="-20"
         y="13"
         id="rect14"
         style="fill:#c4a000" />
      <path
         d="m -15,14 0,2.0625 c -0.537663,0.111041 -1.024662,0.383291 -1.375,0.78125 l -1.78125,-1.03125 -0.5,0.875 1.78125,1.03125 C -16.957063,17.966182 -17,18.225145 -17,18.5 c 0,0.274855 0.04294,0.533818 0.125,0.78125 l -1.78125,1.03125 0.5,0.875 1.78125,-1.03125 c 0.352503,0.40042 0.832682,0.670182 1.375,0.78125 l 0,2.0625 1,0 0,-2.0625 c 0.537663,-0.111041 1.024662,-0.383291 1.375,-0.78125 l 1.78125,1.03125 0.5,-0.875 -1.78125,-1.03125 C -12.042937,19.033818 -12,18.774855 -12,18.5 c 0,-0.274855 -0.04294,-0.533818 -0.125,-0.78125 l 1.78125,-1.03125 -0.5,-0.875 -1.78125,1.03125 C -12.977503,16.44333 -13.457682,16.173568 -14,16.0625 L -14,14 Z m 0.5,3.5 c 0.552,0 1,0.448 1,1 0,0.552 -0.448,1 -1,1 -0.552,0 -1,-0.448 -1,-1 0,-0.552 0.448,-1 1,-1 z"
         id="path16"
         inkscape:connector-curvature="0"
         style="fill:#fcffff" />
      <path
         d="m -19,19 9,-0.0096 c 0,0 0,0 0,-2 C -10,14 -11,14 -14.5,14 c -3.5,0 -4.5,0 -4.5,3 0,2 0,2 0,2 z"
         id="path18"
         inkscape:connector-curvature="0"
         style="opacity:0.3;fill:#fcffff;fill-rule:evenodd" />
    </g>
    <path
       sodipodi:nodetypes="ssssssss"
       d="M 8.0273438,1.5019531 C 5.2089966,1.5485899 2.7403002,2.7558425 1.7441406,5.6953125 0.75567277,8.6120835 2.9146915,13.878614 7.6757812,11.537109 15.583522,7.6480824 15.579706,12.5 17.556641,12.5 c 2.438571,0 4.941406,-1.699014 4.941406,-3.8730469 0,-1.944514 0.0964,-3.8062211 -0.992188,-4.8769531 C 19.528924,1.805486 18.532191,4.7360071 13.216797,2.5644531 11.52278,1.8723785 9.7183528,1.4739701 8.0273438,1.5019531 Z"
       style="fill:#8cbe8c;fill-rule:evenodd;stroke:#555753;stroke-width:0.99999994;stroke-linecap:round;stroke-linejoin:round"
       id="path20"
       inkscape:connector-curvature="0" />
  </g>
</svg>
